PathFileType   4   (X/Y/Z)
DataRate	CameraRate	NumFrames	NumMarkers	Units	OrigDataRate	OrigDataStartFrame	OrigNumFrames
120.0	120.0	6	37	mm	120.0	120	136
Frame#	Time	midhip	hip_r	hip_l	knee_r	knee_l	ankle_r	ankle_l	midasis	asis_r	asis_l	psis_r	psis_l	epicondLat_r	epicondLat_l	epicondMed_r	epicondMed_l	malleolusLat_r	malleolusLat_l	malleolusMedv_r	malleolusMedv_l	neck	subclavicle_r	subclavicle_l	sternalnotch	xyphoidprocess	thighwand_r	thighwand_l	upperleg1_r	upperleg1_l	upperleg2_r	upperleg2_l	shankwand_r	shankwand_l	lowerleg1_r	lowerleg1_l	toe_r	toe_l
 	 	X1	Y1	Z1	X2	Y2	Z2	X3	Y3	Z3	X4	Y4	Z4	X5	Y5	Z5	X6	Y6	Z6	X7	Y7	Z7	X8	Y8	Z8	X9	Y9	Z9	X10	Y10	Z10	X11	Y11	Z11	X12	Y12	Z12	X13	Y13	Z13	X14	Y14	Z14	X15	Y15	Z15	X16	Y16	Z16	X17	Y17	Z17	X18	Y18	Z18	X19	Y19	Z19	X20	Y20	Z20	X21	Y21	Z21	X22	Y22	Z22	X23	Y23	Z23	X24	Y24	Z24	X25	Y25	Z25	X26	Y26	Z26	X27	Y27	Z27	X28	Y28	Z28	X29	Y29	Z29	X30	Y30	Z30	X31	Y31	Z31	X32	Y32	Z32	X33	Y33	Z33	X34	Y34	Z34	X35	Y35	Z35	X36	Y36	Z36	X37	Y37	Z37

	120	1.12500	947.437	670.203	-274.952	941.048	678.462	-211.310	936.761	676.822	-337.055	1091.666	388.233	-223.672	874.438	374.537	-298.847	1203.186	78.547	-210.600	775.442	65.656	-283.246	1003.749	741.949	-277.232	1006.985	743.186	-182.329	1000.513	740.711	-372.136	859.738	777.808	-246.744	855.458	774.905	-301.432	1092.629	386.583	-173.208	863.781	370.580	-347.538	1086.565	374.228	-270.144	886.940	373.420	-246.838	1195.544	77.171	-178.012	765.444	67.195	-316.230	1202.009	89.542	-236.602	774.237	70.539	-254.292	918.803	1129.551	-283.859	1000.681	1080.995	-219.901	994.654	1079.484	-349.450	991.681	1069.126	-286.728	1005.885	925.705	-285.082	1055.581	460.179	-89.474	1017.741	447.196	-369.698	1055.683	529.548	-156.807	973.868	518.040	-307.279	1101.139	459.618	-174.666	945.846	436.820	-289.676	1142.632	170.549	-107.653	879.022	132.823	-337.300	1137.447	225.508	-167.486	841.441	204.720	-312.446	1295.657	97.392	-202.158	861.427	36.562	-303.975
	121	1.13333	955.454	668.823	-275.134	949.205	676.882	-211.430	944.705	675.635	-337.172	1099.548	386.807	-224.531	879.108	374.305	-299.019	1218.539	79.672	-212.047	776.034	66.670	-283.230	1011.674	740.696	-277.256	1015.072	741.637	-182.337	1008.277	739.755	-372.176	867.578	776.207	-246.440	863.263	773.456	-301.105	1100.622	385.085	-174.072	868.466	370.455	-347.722	1093.449	372.339	-271.282	891.947	373.410	-246.849	1211.019	78.083	-179.440	766.018	68.334	-316.202	1217.110	91.002	-237.908	774.757	71.715	-254.174	926.354	1128.178	-283.402	1008.268	1079.474	-219.384	1002.153	1078.083	-348.991	999.227	1067.699	-286.288	1013.288	924.237	-284.737	1063.880	458.412	-90.334	1023.506	445.789	-369.832	1063.679	527.756	-157.811	980.366	517.070	-307.222	1108.842	457.758	-175.939	951.528	436.268	-289.690	1156.024	170.210	-108.790	880.463	132.450	-337.444	1149.238	225.242	-168.423	843.839	204.939	-312.576	1310.874	100.032	-204.081	861.616	36.647	-303.984
	122	1.14167	963.527	667.511	-275.264	957.451	675.374	-211.512	952.745	674.492	-337.249	1107.532	385.452	-225.356	883.957	374.093	-299.224	1232.954	80.654	-213.569	776.686	67.799	-283.313	1019.712	739.479	-277.252	1023.265	740.145	-182.321	1016.160	738.813	-372.182	875.504	774.700	-246.124	871.216	772.077	-300.776	1108.686	383.640	-174.902	873.312	370.364	-347.935	1100.530	370.591	-272.302	897.175	373.305	-246.759	1225.520	78.856	-180.954	766.667	69.595	-316.277	1231.328	92.375	-239.348	774.989	73.175	-254.090	934.039	1126.800	-282.937	1015.963	1078.020	-218.836	1009.688	1076.751	-348.562	1006.807	1066.331	-285.804	1020.811	922.840	-284.400	1072.193	456.677	-91.152	1029.366	444.400	-370.018	1071.776	526.108	-158.773	986.897	516.021	-307.235	1116.613	456.056	-177.076	957.340	435.643	-289.693	1168.683	169.806	-109.994	881.990	132.143	-337.637	1160.534	224.889	-169.406	846.388	205.156	-312.795	1325.164	102.290	-205.985	861.843	36.761	-304.033
	123	1.15000	971.660	666.278	-275.335	965.790	673.958	-211.548	960.885	673.398	-337.280	1115.659	384.187	-226.157	889.010	373.897	-299.463	1246.400	81.421	-215.167	777.407	69.047	-283.498	1027.872	738.308	-277.219	1031.575	738.730	-182.284	1024.168	737.885	-372.154	883.542	773.307	-245.803	879.326	770.785	-300.449	1116.858	382.263	-175.708	878.339	370.307	-348.179	1108.308	368.963	-273.097	902.424	373.202	-246.756	1239.012	79.415	-182.554	767.403	70.984	-316.459	1244.615	93.514	-240.932	775.572	74.578	-254.231	941.704	1125.462	-282.403	1023.592	1076.692	-218.240	1017.318	1075.463	-348.089	1014.435	1065.031	-285.284	1028.451	921.533	-283.914	1080.535	454.994	-91.918	1035.334	443.039	-370.270	1079.749	524.506	-159.541	993.472	515.035	-307.358	1124.601	454.471	-177.952	963.149	434.932	-289.759	1180.577	169.288	-111.278	883.619	131.906	-337.880	1171.303	224.432	-170.530	849.057	205.396	-313.067	1338.497	104.084	-207.866	862.110	36.898	-304.123
	124	1.15833	979.874	665.132	-275.344	974.233	672.648	-211.531	969.129	672.359	-337.256	1123.962	383.028	-226.943	894.288	373.718	-299.735	1258.850	81.906	-216.838	778.211	70.424	-283.782	1036.160	737.190	-277.159	1040.014	737.408	-182.227	1032.306	736.972	-372.092	891.727	772.034	-245.480	887.600	769.592	-300.125	1125.168	380.967	-176.500	883.565	370.285	-348.451	1116.359	367.885	-274.031	907.730	373.093	-246.884	1251.462	79.691	-184.238	768.238	72.507	-316.743	1256.971	94.352	-242.620	776.478	75.972	-254.563	949.339	1124.218	-281.841	1031.124	1075.450	-217.598	1025.049	1074.288	-347.592	1022.121	1063.817	-284.736	1036.134	920.327	-283.415	1088.925	453.376	-92.626	1041.426	441.719	-370.593	1088.035	522.977	-159.773	1000.284	514.064	-307.603	1132.847	452.966	-178.556	969.027	434.044	-289.916	1191.694	168.615	-112.649	885.362	131.742	-338.173	1181.503	223.838	-171.782	851.929	205.677	-313.375	1350.850	105.337	-209.721	862.419	37.053	-304.254
	125	1.16667	988.205	664.069	-275.291	982.791	671.456	-211.450	977.481	671.376	-337.166	1132.457	381.985	-227.729	899.805	373.558	-300.036	1270.278	82.048	-218.577	779.114	71.940	-284.156	1044.585	736.132	-277.071	1048.595	736.192	-182.152	1040.576	736.072	-371.991	900.107	770.880	-245.159	896.040	768.504	-299.801	1133.636	379.758	-177.292	889.007	370.301	-348.747	1124.228	367.411	-275.245	913.396	372.811	-247.051	1262.851	79.630	-186.000	769.185	74.178	-317.121	1268.378	94.848	-244.336	777.290	77.553	-254.979	957.087	1123.059	-281.306	1038.686	1074.223	-216.969	1032.898	1073.202	-347.034	1029.863	1062.703	-284.156	1043.808	919.171	-282.971	1097.384	451.831	-93.278	1047.661	440.451	-370.982	1096.825	521.613	-159.561	1007.293	512.960	-307.963	1141.262	451.540	-179.029	975.178	433.033	-290.169	1202.038	167.761	-114.109	887.229	131.660	-338.519	1191.135	223.097	-173.063	854.990	205.986	-313.714	1362.206	105.974	-211.555	862.772	37.222	-304.419
